<svg xmlns="http://www.w3.org/2000/svg" width="24" height="24" viewBox="0 0 24 24" fill="none" stroke="currentColor" stroke-width="2" stroke-linecap="round" stroke-linejoin="round">
  <path d="M14.106 5.553a2 2 0 0 0 1.788 0l3.659-1.83a1 1 0 0 1 1.447.894v12.764a2 2 0 0 1-1.106 1.789l-3.788 1.894a2 2 0 0 1-1.789 0l-4.212-2.106a2 2 0 0 0-1.788 0l-3.659 1.83A1 1 0 0 1 3 19.824V7.059a2 2 0 0 1 1.106-1.789l3.788-1.894a2 2 0 0 1 1.789 0z"/>
  <path d="M15 5.764v15"/>
  <path d="M9 3.236v15"/>
</svg>
